<svg width="77" height="78" viewBox="0 0 77 78" fill="none" xmlns="http://www.w3.org/2000/svg">
<rect y="0.361938" width="77" height="77" rx="16" fill="#FF630B"/>
<path d="M5.51074 39.4274C5.51074 36.1512 6.21954 33.2372 7.63714 30.6856C9.05474 28.1024 11.0236 26.102 13.5438 24.6844C16.0955 23.2353 18.9779 22.5107 22.1911 22.5107C26.1289 22.5107 29.4996 23.5503 32.3033 25.6295C35.107 27.7086 35.9458 24.0662 40.3758 22.8888L43.12 27.4141L44.5246 28.8442V30.4875C42.1496 30.4875 27.4363 31.6936 26.2077 30.9691C25.0106 30.2445 23.6402 29.8823 22.0966 29.8823C19.608 29.8823 17.5918 30.7486 16.0482 32.4812C14.5046 34.2138 13.7328 36.5292 13.7328 39.4274C13.7328 42.3256 14.5046 44.641 16.0482 46.3736C17.5918 48.1063 19.608 48.9726 22.0966 48.9726C23.6402 48.9726 25.0106 48.6103 26.2077 47.8857C27.4363 47.1612 28.3813 46.1059 29.0429 44.7198H34.4115H51.5646C51.7231 54.9851 37.4485 57.554 33.4847 52.615C30.681 54.6626 26.1289 56.2968 22.1911 56.2968C18.9779 56.2968 16.0955 55.588 13.5438 54.1704C11.0236 52.7213 9.05474 50.7209 7.63714 48.1693C6.21954 45.6176 5.51074 42.7036 5.51074 39.4274Z" fill="white"/>
<path d="M71.3212 22.8888L59.8387 45.0978V56.0606H51.7584L51.4141 45.0978C51.4141 45.0978 47.5228 30.9313 45.112 30.6856C42.7012 30.4398 40.3758 22.8888 40.3758 22.8888H49.443L55.8694 36.7812L62.2486 22.8888H71.3212Z" fill="white"/>
</svg>
